<svg width="242" height="245" viewBox="0 0 242 245" fill="none" xmlns="http://www.w3.org/2000/svg">
<path d="M170.976 139.789L168.819 139.151L170.976 139.789ZM110.917 174.465L111.442 172.277L110.917 174.465ZM128.134 178.881L127.269 180.958L127.269 180.958L128.134 178.881ZM137.113 185.682L135.356 187.087L137.113 185.682ZM166.192 156.908L168.424 157.198L168.424 157.198L166.192 156.908ZM167.593 168.085L169.688 167.265L167.593 168.085ZM155.098 205.904L155.04 208.153L155.098 205.904ZM149.783 204.313L150.956 202.393L149.783 204.313ZM177.392 188.373L175.143 188.429L177.392 188.373ZM176.113 193.771L174.136 192.696L176.113 193.771ZM77.3216 146.426C62.6578 121.027 70.2794 89.4366 93.9689 75.7595L91.7189 71.8624C65.6659 86.904 57.6436 121.342 73.4245 148.676L77.3216 146.426ZM93.9689 75.7595C117.658 62.0823 148.827 71.2771 163.491 96.6756L167.388 94.4256C151.607 67.0922 117.772 56.8207 91.7189 71.8624L93.9689 75.7595ZM163.491 96.6756C171.342 110.273 172.807 125.681 168.819 139.151L173.134 140.428C177.47 125.782 175.859 109.098 167.388 94.4256L163.491 96.6756ZM111.442 172.277C97.7835 168.996 85.1722 160.023 77.3216 146.426L73.4245 148.676C81.8957 163.348 95.5392 173.085 110.391 176.653L111.442 172.277ZM171.042 174.588L141.02 191.922L143.27 195.819L173.292 178.485L171.042 174.588ZM110.391 176.653C115.606 177.905 119.497 178.84 122.284 179.544C125.143 180.267 126.66 180.705 127.269 180.958L128.999 176.804C128.017 176.395 126.134 175.876 123.386 175.182C120.567 174.469 116.645 173.527 111.442 172.277L110.391 176.653ZM144.094 192.745C141.525 188.295 140.105 185.822 138.871 184.278L135.356 187.087C136.319 188.292 137.521 190.361 140.197 194.995L144.094 192.745ZM127.269 180.958C129.904 182.055 130.973 182.542 131.86 183.214C132.753 183.89 133.536 184.81 135.356 187.087L138.871 184.278C137.148 182.122 136.007 180.709 134.578 179.627C133.144 178.541 131.495 177.843 128.999 176.804L127.269 180.958ZM168.819 139.151C167.3 144.281 166.155 148.149 165.362 150.947C164.59 153.674 164.098 155.564 163.961 156.619L168.424 157.198C168.508 156.543 168.888 155.011 169.692 152.173C170.475 149.407 171.611 145.57 173.134 140.428L168.819 139.151ZM174.116 175.412C171.441 170.778 170.25 168.702 169.688 167.265L165.498 168.905C166.218 170.746 167.65 173.212 170.219 177.662L174.116 175.412ZM163.961 156.619C163.613 159.3 163.393 161.076 163.616 162.861C163.839 164.64 164.492 166.335 165.498 168.905L169.688 167.265C168.626 164.551 168.22 163.412 168.081 162.302C167.943 161.197 168.056 160.028 168.424 157.198L163.961 156.619ZM165.219 199.168C162.375 200.81 160.379 201.96 158.743 202.705C157.141 203.436 156.09 203.679 155.155 203.655L155.04 208.153C156.934 208.202 158.7 207.671 160.61 206.8C162.488 205.944 164.701 204.663 167.469 203.065L165.219 199.168ZM140.197 194.995C141.895 197.936 143.237 200.265 144.474 202.04C145.727 203.836 146.989 205.242 148.61 206.233L150.956 202.393C150.091 201.864 149.252 201.024 148.166 199.466C147.064 197.886 145.831 195.753 144.094 192.745L140.197 194.995ZM155.155 203.655C153.708 203.618 152.259 203.189 150.956 202.393L148.61 206.233C150.565 207.427 152.781 208.095 155.04 208.153L155.155 203.655ZM170.219 177.662C171.956 180.67 173.186 182.804 174.003 184.548C174.81 186.269 175.118 187.415 175.143 188.429L179.641 188.317C179.594 186.418 179.007 184.621 178.078 182.639C177.16 180.68 175.814 178.352 174.116 175.412L170.219 177.662ZM167.469 203.065C170.237 201.467 172.452 200.191 174.132 198.993C175.842 197.774 177.185 196.51 178.09 194.845L174.136 192.696C173.69 193.518 172.954 194.307 171.52 195.329C170.056 196.372 168.063 197.526 165.219 199.168L167.469 203.065ZM175.143 188.429C175.181 189.954 174.828 191.425 174.136 192.696L178.09 194.845C179.169 192.86 179.698 190.607 179.641 188.317L175.143 188.429Z" fill="white" fill-opacity="0.8"/>
<path d="M75.3442 43.5L79.6942 51.0344M51.0344 157.994L43.5 162.344M41.5955 98.1455L34.4637 96.2345M139.543 41.5955L141.455 34.463M194.188 75.3442L186.654 79.6942" stroke="white" stroke-opacity="0.8" stroke-width="4.5" stroke-linecap="round" stroke-linejoin="round"/>
</svg>
