<svg id="Layer_1" data-name="Layer 1" xmlns="http://www.w3.org/2000/svg" viewBox="0 0 1080 1123.67"><defs><style>.cls-1{fill:#fc3030;}.cls-2{fill:#fff;}</style></defs><rect class="cls-1" x="521.31" y="635.35" width="37.38" height="190.09" rx="9.01"/><path class="cls-1" d="M627.35,722.44V859.65a30,30,0,0,1-30,30H482.66a30,30,0,0,1-30-30V722.44a7.48,7.48,0,0,1,7.48-7.48h22.43a7.48,7.48,0,0,1,7.48,7.48v99.83a30,30,0,0,0,30,30H560a30,30,0,0,0,30-30V722.44a7.48,7.48,0,0,1,7.48-7.48h22.43A7.48,7.48,0,0,1,627.35,722.44Z"/><rect class="cls-1" x="290.36" y="622.45" width="190.09" height="37.38" rx="9.01" transform="translate(-268.94 278.6) rotate(-30)"/><path class="cls-1" d="M436,712.8,317.14,781.41a30,30,0,0,1-41-11l-57.34-99.31a30,30,0,0,1,11-41l118.83-68.6a7.47,7.47,0,0,1,10.21,2.73l11.22,19.43a7.48,7.48,0,0,1-2.74,10.21L280.86,643.8a30,30,0,0,0-11,41l20,34.57a30,30,0,0,0,41,11l86.46-49.91a7.48,7.48,0,0,1,10.21,2.74l11.21,19.42A7.47,7.47,0,0,1,436,712.8Z"/><rect class="cls-1" x="366.71" y="367.58" width="37.38" height="190.09" rx="9.01" transform="translate(-207.94 565.08) rotate(-60)"/><path class="cls-1" d="M348.62,542.25,229.79,473.64a30,30,0,0,1-11-41l57.34-99.31a30,30,0,0,1,41-11L436,391a7.47,7.47,0,0,1,2.73,10.21L427.49,420.6a7.47,7.47,0,0,1-10.21,2.73l-86.46-49.91a30,30,0,0,0-41,11l-20,34.57a30,30,0,0,0,11,41l86.45,49.91a7.49,7.49,0,0,1,2.74,10.22l-11.22,19.42A7.47,7.47,0,0,1,348.62,542.25Z"/><rect class="cls-1" x="521.31" y="278.32" width="37.38" height="190.09" rx="9.01"/><path class="cls-1" d="M452.65,381.33V244.12a30,30,0,0,1,30-30H597.34a30,30,0,0,1,30,30V381.33a7.48,7.48,0,0,1-7.48,7.47H597.44a7.48,7.48,0,0,1-7.48-7.47V281.5a30,30,0,0,0-30-30H520a30,30,0,0,0-30,30v99.83a7.48,7.48,0,0,1-7.48,7.47H460.13A7.48,7.48,0,0,1,452.65,381.33Z"/><rect class="cls-1" x="599.55" y="443.93" width="190.09" height="37.38" rx="9.01" transform="translate(-138.25 409.28) rotate(-30)"/><path class="cls-1" d="M644,391l118.83-68.6a30,30,0,0,1,41,11l57.34,99.31a30,30,0,0,1-11,41L731.38,542.25a7.47,7.47,0,0,1-10.21-2.74L710,520.09a7.49,7.49,0,0,1,2.74-10.22L799.14,460a30,30,0,0,0,11-41l-20-34.57a30,30,0,0,0-41-11l-86.46,49.91a7.47,7.47,0,0,1-10.21-2.73L641.3,401.17A7.47,7.47,0,0,1,644,391Z"/><rect class="cls-1" x="675.91" y="546.1" width="37.38" height="190.09" rx="9.01" transform="translate(-207.94 922.11) rotate(-60)"/><path class="cls-1" d="M731.38,561.52l118.83,68.6a30,30,0,0,1,11,41l-57.34,99.31a30,30,0,0,1-41,11L644,712.8a7.47,7.47,0,0,1-2.73-10.21l11.21-19.42a7.48,7.48,0,0,1,10.21-2.74l86.46,49.91a30,30,0,0,0,41-11l20-34.57a30,30,0,0,0-11-41l-86.45-49.91A7.48,7.48,0,0,1,710,583.68l11.22-19.43A7.47,7.47,0,0,1,731.38,561.52Z"/><path class="cls-1" d="M636.7,954.07H443.3a41.45,41.45,0,0,1-20.65-5.53L255.16,851.83a41.32,41.32,0,0,1-15.11-15.11l-96.7-167.49a41.35,41.35,0,0,1-5.53-20.65V455.18a41.35,41.35,0,0,1,5.53-20.65L240.05,267a41.39,41.39,0,0,1,15.11-15.11l167.49-96.7a41.35,41.35,0,0,1,20.65-5.53H636.7a41.35,41.35,0,0,1,20.65,5.53l167.49,96.7A41.39,41.39,0,0,1,840,267l96.7,167.49a41.35,41.35,0,0,1,5.53,20.65v193.4a41.35,41.35,0,0,1-5.53,20.65L840,836.72a41.42,41.42,0,0,1-15.11,15.12L657.35,948.53A41.36,41.36,0,0,1,636.7,954.07ZM443.3,162.94a28,28,0,0,0-14,3.76L261.78,263.39a28.1,28.1,0,0,0-10.27,10.27l-96.7,167.49a28.09,28.09,0,0,0-3.76,14v193.4a28.09,28.09,0,0,0,3.76,14l96.7,167.49a28.1,28.1,0,0,0,10.27,10.27l167.49,96.7a28.09,28.09,0,0,0,14,3.76H636.7a28.09,28.09,0,0,0,14-3.76l167.49-96.7a28.1,28.1,0,0,0,10.27-10.27l96.7-167.49a28.09,28.09,0,0,0,3.76-14V455.18a28.09,28.09,0,0,0-3.76-14l-96.7-167.49a28,28,0,0,0-10.27-10.26L650.73,166.69a28.08,28.08,0,0,0-14-3.75Z"/><path class="cls-2" d="M83.78,714.62l-23.52,8.76L71.61,753.9,57.3,759.23,45.94,728.71l-24,8.93,14.6,39.24-14.82,5.51L0,724.11l91.52-34.05,21.68,58.28-14.82,5.52Z"/><path class="cls-2" d="M159.89,829.76,76.05,879.82l-5.35-9a9.25,9.25,0,0,1-1.37-3.81A9.59,9.59,0,0,1,70,863l28.22-73.52q-1.92,1.39-3.84,2.65c-1.27.84-2.46,1.59-3.58,2.26L42.31,823.31,33.17,808,117,757.94l5.45,9.13a21.41,21.41,0,0,1,1,1.93,4.88,4.88,0,0,1,.44,1.66,6.68,6.68,0,0,1-.11,1.71,14.58,14.58,0,0,1-.63,2.1L94.92,848.41c1.37-1,2.71-2,4-2.88s2.59-1.71,3.83-2.44l48-28.64Z"/><path class="cls-2" d="M166.07,909.41l22.6,24.75L158.9,961.34A52.41,52.41,0,0,1,142.28,955a62.11,62.11,0,0,1-13.91-11.5,60.36,60.36,0,0,1-11.94-18.62,49.08,49.08,0,0,1-3.58-19.33A45.87,45.87,0,0,1,117.31,887a52.17,52.17,0,0,1,12.22-16.26,54.55,54.55,0,0,1,17.29-10.91,45,45,0,0,1,18.55-3,46.77,46.77,0,0,1,18.47,5,57.7,57.7,0,0,1,17,13.14,61,61,0,0,1,6.91,9,54,54,0,0,1,4.54,9,45.91,45.91,0,0,1,2.49,8.76,46.46,46.46,0,0,1,.71,8.46l-10.61,1.76a5.43,5.43,0,0,1-4.29-.82,6.39,6.39,0,0,1-2.39-4.2c-.36-1.86-.77-3.62-1.23-5.3a37.34,37.34,0,0,0-1.82-5,35.09,35.09,0,0,0-2.87-5.13,47.85,47.85,0,0,0-4.45-5.58,31.13,31.13,0,0,0-10.05-7.51,26.33,26.33,0,0,0-11.25-2.44,29.73,29.73,0,0,0-11.67,2.59,41.23,41.23,0,0,0-11.4,7.58,42.41,42.41,0,0,0-9.11,11.42,30,30,0,0,0-3.57,12,27.49,27.49,0,0,0,1.81,11.87,35,35,0,0,0,7,11.11,34.66,34.66,0,0,0,6.55,5.73,43,43,0,0,0,7,3.7l12.12-11.07-7.44-8.15a4.26,4.26,0,0,1-1.29-3,3.5,3.5,0,0,1,1.21-2.61Z"/><path class="cls-2" d="M187.48,996.71l-15.61-13,62.51-75,15.61,13Z"/><path class="cls-2" d="M332.94,976.69l-51.14,83.18-8.89-5.46a9.18,9.18,0,0,1-3-2.74,9.67,9.67,0,0,1-1.3-3.92l-9-78.23c-.7,1.41-1.43,2.79-2.17,4.12s-1.45,2.56-2.14,3.66l-29.57,48.1-15.19-9.34,51.14-83.18,9.06,5.57a17.46,17.46,0,0,1,1.81,1.23,4.59,4.59,0,0,1,1.16,1.26,6.88,6.88,0,0,1,.7,1.58,15.32,15.32,0,0,1,.41,2.15L284,1023.3c.74-1.55,1.49-3,2.25-4.43s1.51-2.71,2.26-3.94l29.26-47.58Z"/><path class="cls-2" d="M360.85,1004.69l-9.05,23.41,30.37,11.75-5.5,14.25-30.38-11.75L337,1066.27l39.05,15.1-5.71,14.75-58-22.44,35.22-91.07,58,22.43-5.71,14.75Z"/><path class="cls-2" d="M432.3,1027.44,427,1052l31.82,6.93-3.25,14.93-31.82-6.93-5.46,25,40.91,8.9-3.37,15.46L395,1103.08l20.77-95.41,60.76,13.22-3.36,15.46Z"/><path class="cls-2" d="M559.84,1123.67l-18.21-.91c-3.41-.17-5.8-1.59-7.2-4.27l-17-30.84A7.85,7.85,0,0,0,515,1085a8.11,8.11,0,0,0-4-1l-6.86-.34-1.87,37.17-20.16-1,4.9-97.52,30.65,1.54a62.66,62.66,0,0,1,17.37,3,33.79,33.79,0,0,1,11.61,6.47,22.68,22.68,0,0,1,6.33,9.32,31.32,31.32,0,0,1-.27,20.67,26.88,26.88,0,0,1-4.39,7.7,28.78,28.78,0,0,1-6.77,6,33.59,33.59,0,0,1-9,4,19.39,19.39,0,0,1,3.5,2.77,17.63,17.63,0,0,1,2.85,3.75ZM515.18,1070a25.9,25.9,0,0,0,8.53-.82,15.93,15.93,0,0,0,6-3.13,13.45,13.45,0,0,0,3.62-5,18.91,18.91,0,0,0,1.4-6.39q.33-6.93-4.07-11t-13.82-4.54l-10.48-.52-1.55,30.85Z"/><path class="cls-2" d="M597.53,1119.83l-20.27,1.51L570,1024l20.26-1.51Z"/><path class="cls-2" d="M688.16,1004.26l21.15,95.33-10.19,2.26a9.13,9.13,0,0,1-4,.1,9.65,9.65,0,0,1-3.66-1.91l-60.91-49.91c.47,1.51.9,3,1.3,4.47s.73,2.85,1,4.12l12.23,55.12-17.41,3.86-21.15-95.33,10.39-2.3a19.91,19.91,0,0,1,2.16-.38,4.85,4.85,0,0,1,1.71.11,6.62,6.62,0,0,1,1.59.64,14.44,14.44,0,0,1,1.79,1.26l61.3,50.1q-.82-2.44-1.47-4.75c-.43-1.53-.8-3-1.11-4.4l-12.1-54.53Z"/><path class="cls-2" d="M765.73,1023.32l30.58-13.73,16.51,36.78a52.54,52.54,0,0,1-11.25,13.79,62.11,62.11,0,0,1-15.27,9.62,60.53,60.53,0,0,1-21.42,5.52,49,49,0,0,1-19.49-2.65,45.93,45.93,0,0,1-16.24-10.05,52,52,0,0,1-11.62-16.68,54.72,54.72,0,0,1-5-19.84,45.09,45.09,0,0,1,2.92-18.57,46.82,46.82,0,0,1,10.49-16,57.76,57.76,0,0,1,17.79-12,62.26,62.26,0,0,1,10.71-3.73,53.81,53.81,0,0,1,9.95-1.52,46,46,0,0,1,9.09.38,45.09,45.09,0,0,1,8.26,2l-1.64,10.62A5.44,5.44,0,0,1,778,991a6.35,6.35,0,0,1-4.74,1c-1.88-.24-3.68-.4-5.42-.48a37.22,37.22,0,0,0-5.35.15,35,35,0,0,0-5.77,1.12,48.13,48.13,0,0,0-6.7,2.49,31,31,0,0,0-10.27,7.19,26.3,26.3,0,0,0-5.84,9.93,29.65,29.65,0,0,0-1.19,11.89,41.46,41.46,0,0,0,3.64,13.19,42.16,42.16,0,0,0,8,12.23,29.9,29.9,0,0,0,10.29,7.15,27.51,27.51,0,0,0,11.84,2,38.24,38.24,0,0,0,20.25-7.65,43.18,43.18,0,0,0,5.69-5.47l-6.72-15-10.07,4.52a4.31,4.31,0,0,1-3.22.3,3.49,3.49,0,0,1-2.1-2Z"/><path class="cls-2" d="M836.27,943.78l15.33,19.88,25.79-19.9,9.33,12.09-25.79,19.9,15.66,20.3,33.14-25.57L919.4,983l-49.24,38-59.64-77.32,49.23-38,9.66,12.52Z"/><path class="cls-2" d="M994.48,905.3l-13.7,14.83a5.12,5.12,0,0,1-3,1.71,8.15,8.15,0,0,1-3.08-.14L934,912.81c.21.5.42,1,.63,1.46a8.28,8.28,0,0,1,.48,1.4l10.74,37.25a12.29,12.29,0,0,1,.32,3.09,4.32,4.32,0,0,1-1.27,2.9l-12.79,13.84-15.21-57.6-55.66-9.59L875,890.74a6.2,6.2,0,0,1,2.41-1.81,4.89,4.89,0,0,1,2.42,0l39.61,8c-.24-.53-.48-1.09-.71-1.66a17.62,17.62,0,0,1-.62-1.86l-9.84-34.76A6.2,6.2,0,0,1,908,856a4.31,4.31,0,0,1,1.16-2.19l13.11-14.18L935.32,894Z"/><path class="cls-2" d="M943,806.25a56.88,56.88,0,0,1,11.35-13.31,33.25,33.25,0,0,1,12-6.56,25.86,25.86,0,0,1,12.17-.45,34.59,34.59,0,0,1,11.81,4.9,35.94,35.94,0,0,1,9.82,9.12,26.94,26.94,0,0,1,4.8,11.57,32.9,32.9,0,0,1-.88,13.75,54.89,54.89,0,0,1-7.19,15.62L990,851.64l28.24,18.16-10.91,17L925.14,834Zm40.88,26.27q5.13-8,3.66-14.17t-8.15-10.47a18.69,18.69,0,0,0-6.17-2.65,13.18,13.18,0,0,0-6.12.06,15.14,15.14,0,0,0-5.82,3,25.85,25.85,0,0,0-5.37,6.23L949,825.3l28,18Z"/><path class="cls-2" d="M1048,697.15a53.66,53.66,0,0,1,17.14,10.65,46.45,46.45,0,0,1,11,15.27,47.06,47.06,0,0,1,3.93,18.52,56.92,56.92,0,0,1-15.06,38,47.22,47.22,0,0,1-15.55,10.85,46,46,0,0,1-18.45,3.66,56.37,56.37,0,0,1-36.89-14.59,46.37,46.37,0,0,1-10.93-15.29,47.45,47.45,0,0,1-3.91-18.55,56.87,56.87,0,0,1,15.06-38.05,46.08,46.08,0,0,1,34-14.44A53.18,53.18,0,0,1,1048,697.15Zm-7.6,19.21a43.65,43.65,0,0,0-13.54-3.19,29.2,29.2,0,0,0-11.78,1.6,25,25,0,0,0-9.46,6.17,34.6,34.6,0,0,0-9.05,22.87,25,25,0,0,0,2.66,11,29.26,29.26,0,0,0,7.5,9.23,48.11,48.11,0,0,0,25.65,10.15,29,29,0,0,0,11.75-1.61,25.12,25.12,0,0,0,9.44-6.22,34.71,34.71,0,0,0,9.06-22.87,25.29,25.29,0,0,0-2.65-11,28.82,28.82,0,0,0-7.47-9.22A44,44,0,0,0,1040.37,716.36Z"/><path class="cls-2" d="M31.09,348.39a56.66,56.66,0,0,1,8.55-15.26,33,33,0,0,1,10.52-8.76A25.77,25.77,0,0,1,62,321.56a34.44,34.44,0,0,1,12.53,2.52,35.83,35.83,0,0,1,11.41,7,26.85,26.85,0,0,1,7,10.42,33.13,33.13,0,0,1,1.81,13.66,54.64,54.64,0,0,1-4,16.71L86,383.81l31.23,12.32-7.41,18.78L19,379.06Zm45.19,17.84q3.5-8.84.85-14.61t-10-8.7a19.25,19.25,0,0,0-6.57-1.4,13.24,13.24,0,0,0-6,1.26,15.13,15.13,0,0,0-5.13,4.09,25.62,25.62,0,0,0-4,7.15l-4.69,11.89,30.92,12.21Z"/><path class="cls-2" d="M180.12,276.66l-9.54,15.54q-2.69,4.35-7.2,4.26l-35.25.15a7.85,7.85,0,0,0-3.49.81,8.21,8.21,0,0,0-2.82,3.05l-3.59,5.85,31.7,19.48L139.37,343l-83.2-51.11,16.06-26.15a63.14,63.14,0,0,1,11-13.8,33.62,33.62,0,0,1,11.26-7.07,22.52,22.52,0,0,1,11.21-1.08,29.6,29.6,0,0,1,10.9,4.17,30.07,30.07,0,0,1,7.11,6,27.27,27.27,0,0,1,4.64,7.55,28.91,28.91,0,0,1,2,8.81,33.3,33.3,0,0,1-.8,9.78,19.67,19.67,0,0,1,4.11-1.74,18.24,18.24,0,0,1,4.65-.69Zm-68.57,13.39a25.94,25.94,0,0,0,3.38-7.87,16.13,16.13,0,0,0,.14-6.79,13.41,13.41,0,0,0-2.63-5.56,18.7,18.7,0,0,0-4.94-4.3c-3.93-2.42-7.8-3-11.58-1.71s-7.33,4.6-10.62,9.95l-5.49,9,26.32,16.16Z"/><path class="cls-2" d="M209.11,173.35a53.72,53.72,0,0,1,12.11,16.14,46.46,46.46,0,0,1,4.7,18.2,47.23,47.23,0,0,1-3,18.69,56.94,56.94,0,0,1-27.82,30,47.11,47.11,0,0,1-18.42,4.48,46.11,46.11,0,0,1-18.53-3.27,56.42,56.42,0,0,1-29.1-27,46.33,46.33,0,0,1-4.64-18.21,47.14,47.14,0,0,1,3.07-18.71,57,57,0,0,1,27.81-30,46.06,46.06,0,0,1,36.94-1.14A53.22,53.22,0,0,1,209.11,173.35Zm-14,15.16a43.79,43.79,0,0,0-11.47-7.88A29.06,29.06,0,0,0,172,177.86a24.93,24.93,0,0,0-11,2.32,31.67,31.67,0,0,0-10,7.48,32,32,0,0,0-6.72,10.56,24.93,24.93,0,0,0-1.5,11.23,29.09,29.09,0,0,0,3.64,11.31,48.24,48.24,0,0,0,20.24,18.76,28.8,28.8,0,0,0,11.53,2.75,25.28,25.28,0,0,0,11.06-2.37A34.79,34.79,0,0,0,206,221.85a25.23,25.23,0,0,0,1.5-11.17,28.89,28.89,0,0,0-3.62-11.29A43.92,43.92,0,0,0,195.07,188.51Z"/><path class="cls-2" d="M220.09,124.83l16,21.72,28.27-20.87,9.43,12.79-28.27,20.85,23.14,31.36-16.36,12.06-58-78.56,50-36.93L253.77,100Z"/><path class="cls-2" d="M292.15,162.14a10.49,10.49,0,0,1-1.49-4,10.27,10.27,0,0,1,.18-4.14,11,11,0,0,1,5-6.76,10.93,10.93,0,0,1,4.11-1.53,11,11,0,0,1,4.18.11,10.65,10.65,0,0,1,6.69,4.85,10.7,10.7,0,0,1,1.51,4,10.48,10.48,0,0,1-2,7.87A12.07,12.07,0,0,1,303,167.1a10.66,10.66,0,0,1-4.14-.11,10.5,10.5,0,0,1-6.69-4.85Z"/><path class="cls-2" d="M420.12,61.69a54,54,0,0,1,3.36,19.9A45.91,45.91,0,0,1,408,115.12,57,57,0,0,1,369.54,129a47.55,47.55,0,0,1-18.43-4.47,46,46,0,0,1-15-11.41A53.53,53.53,0,0,1,326,95.72a53.42,53.42,0,0,1-3.36-19.86,46.22,46.22,0,0,1,4.23-18.31,47.36,47.36,0,0,1,11.31-15.22,57,57,0,0,1,38.48-13.91A46.1,46.1,0,0,1,410,44.34,53.45,53.45,0,0,1,420.12,61.69Zm-19.43,7a43.83,43.83,0,0,0-6.58-12.26,29.14,29.14,0,0,0-9-7.76,25.06,25.06,0,0,0-10.89-3,34.67,34.67,0,0,0-23.13,8.37,24.88,24.88,0,0,0-6.48,9.28,29,29,0,0,0-1.95,11.73,43.81,43.81,0,0,0,2.77,13.63A43.89,43.89,0,0,0,352,101a28.74,28.74,0,0,0,9,7.74,25.2,25.2,0,0,0,10.92,3,34.76,34.76,0,0,0,23.13-8.36,25.18,25.18,0,0,0,6.46-9.25,28.93,28.93,0,0,0,2-11.69A43.79,43.79,0,0,0,400.69,68.72Z"/><path class="cls-2" d="M436.75,100.31a10.69,10.69,0,0,1,0-4.29,10.31,10.31,0,0,1,1.56-3.84,10.92,10.92,0,0,1,2.91-3,11.18,11.18,0,0,1,4.07-1.72,11.19,11.19,0,0,1,8.29,1.44,10.56,10.56,0,0,1,3,2.87,10.74,10.74,0,0,1,.19,12.08,10.56,10.56,0,0,1-3,2.92,11.49,11.49,0,0,1-4.05,1.69,11.35,11.35,0,0,1-4.41.11,10.6,10.6,0,0,1-3.86-1.49,10.42,10.42,0,0,1-3-2.84A10.67,10.67,0,0,1,436.75,100.31Z"/><path class="cls-2" d="M578.49,96.45l-15.67.47a6.83,6.83,0,0,1-4.31-1.11A7.52,7.52,0,0,1,556,92.68L548.8,74.26l-38.88,1.18-6,18.83a7.79,7.79,0,0,1-2.26,3.14,6.5,6.5,0,0,1-4.2,1.5l-15.81.49L516.79.63,537.45,0Zm-35-36L532,30.87c-.68-1.55-1.39-3.37-2.15-5.46s-1.49-4.35-2.19-6.8c-.55,2.53-1.15,4.88-1.77,7s-1.24,4-1.82,5.61L514.47,61.3Z"/><path class="cls-2" d="M577.64,89a10.64,10.64,0,0,1,3.87-7.31,11,11,0,0,1,3.67-2,11.49,11.49,0,0,1,8.61.82,11,11,0,0,1,3.26,2.61,10.52,10.52,0,0,1,2,3.63,11,11,0,0,1-.8,8.41,10.47,10.47,0,0,1-6.33,5.08,12.07,12.07,0,0,1-8.61-.82A10.49,10.49,0,0,1,577.64,89Z"/><path class="cls-2" d="M696.21,21.29a66.31,66.31,0,0,1,15.64,6.4,31.64,31.64,0,0,1,9.49,8.17,20.1,20.1,0,0,1,3.92,9.69,28,28,0,0,1-1,11,21.11,21.11,0,0,1-2.71,5.94A19.22,19.22,0,0,1,717,67.23a22.47,22.47,0,0,1-6.44,3.31,32.32,32.32,0,0,1-8.41,1.51q8.93,5,12.06,11.43T715,98.06a27.86,27.86,0,0,1-5.46,10.4,26.13,26.13,0,0,1-9.23,7,32.84,32.84,0,0,1-12.51,2.75,49.65,49.65,0,0,1-15.39-2.11l-36.37-10.4,26.82-93.89Zm-19.85,79.79a22.89,22.89,0,0,0,8,1.06,13.44,13.44,0,0,0,5.68-1.63,10.67,10.67,0,0,0,3.75-3.59,18.14,18.14,0,0,0,2.15-4.81,15.2,15.2,0,0,0,.62-5.35,9.63,9.63,0,0,0-1.62-4.63,13.51,13.51,0,0,0-4.19-3.82,29.4,29.4,0,0,0-7.17-3l-16.5-4.71-7.34,25.69Zm1.72-69-7.24,25.37,12.75,3.64A35.69,35.69,0,0,0,691,62.47a15.17,15.17,0,0,0,5.92-.65,10,10,0,0,0,4.39-3,14.4,14.4,0,0,0,2.81-5.53,17.45,17.45,0,0,0,.75-6.22,9.16,9.16,0,0,0-1.74-4.77,13.17,13.17,0,0,0-4.3-3.58A33,33,0,0,0,692,36.05Z"/><path class="cls-2" d="M790.05,166.89l-14-7a6.88,6.88,0,0,1-3.27-3,7.5,7.5,0,0,1-.77-4l2.42-19.62-34.8-17.37-14.23,13.73a7.68,7.68,0,0,1-3.48,1.69,6.46,6.46,0,0,1-4.4-.66l-14.16-7.06,77.75-70.34,18.49,9.23Zm-13.78-48.32,3.89-31.46c.13-1.68.37-3.62.68-5.82s.75-4.54,1.29-7q-2.52,3-4.89,5.35c-1.57,1.59-3,3-4.25,4.08l-22.68,21.93Z"/><path class="cls-2" d="M936.9,160.53l-62.18,75.3L861,224.47l38.19-46.23c.8-1,1.68-2,2.64-3.05s2-2.11,3.08-3.14l-55.26,23a7.49,7.49,0,0,1-8.24-1.12l-2.18-1.8a7.88,7.88,0,0,1-2.51-3.52,7.78,7.78,0,0,1-.15-4.35l12.21-58.87c-.89,1.3-1.77,2.54-2.62,3.72s-1.69,2.26-2.49,3.22l-38.19,46.23L791.7,167.26,853.88,92l11.83,9.77c.66.54,1.23,1.05,1.72,1.51a6.35,6.35,0,0,1,1.15,1.42,4.13,4.13,0,0,1,.48,1.63,7.42,7.42,0,0,1-.17,2.16L856.78,166q-.51,2.64-1.24,5.26t-1.62,5.3q2.49-1.44,5-2.7t5-2.27l54-22.73a6.83,6.83,0,0,1,2.12-.56,4.33,4.33,0,0,1,1.71.19,5.79,5.79,0,0,1,1.59.83c.53.38,1.14.86,1.83,1.42Z"/><path class="cls-2" d="M895.32,263.65l-13.25-15.41,74-63.66L969.36,200Z"/><path class="cls-2" d="M948.24,339.64l-10-15.23q-2.81-4.28-.8-8.33l14.8-32a7.73,7.73,0,0,0,.75-3.51,8,8,0,0,0-1.56-3.84L947.63,271l-31.09,20.46-11.1-16.87L987,220.93l16.86,25.63a63.06,63.06,0,0,1,7.85,15.78,33.67,33.67,0,0,1,1.63,13.19,22.53,22.53,0,0,1-3.77,10.62,29.59,29.59,0,0,1-8.4,8.1,30,30,0,0,1-8.43,3.9,27,27,0,0,1-8.81,1,28.59,28.59,0,0,1-8.84-1.92,33.6,33.6,0,0,1-8.52-4.86,19.54,19.54,0,0,1-.16,4.45,18.22,18.22,0,0,1-1.34,4.51Zm17-67.78a25.72,25.72,0,0,0,5.7,6.4,15.87,15.87,0,0,0,6.09,3,13.31,13.31,0,0,0,6.15,0,19.07,19.07,0,0,0,6-2.65q5.77-3.81,6.46-9.77T991.07,255l-5.77-8.76-25.81,17Z"/><path class="cls-2" d="M1029.39,409.67a53.51,53.51,0,0,1-19.75,4.11,46.58,46.58,0,0,1-18.47-3.49,47.14,47.14,0,0,1-15.62-10.7,56.87,56.87,0,0,1-15.34-37.93A47.45,47.45,0,0,1,964,343.07a46.5,46.5,0,0,1,10.84-15.38,56.48,56.48,0,0,1,36.78-14.88,46.4,46.4,0,0,1,18.45,3.53,47.39,47.39,0,0,1,15.63,10.74A56.95,56.95,0,0,1,1061,365a46,46,0,0,1-14.66,33.92A53.23,53.23,0,0,1,1029.39,409.67Zm-7.74-19.15a43.71,43.71,0,0,0,12-7,29.15,29.15,0,0,0,7.42-9.29,25,25,0,0,0,2.6-11,34.69,34.69,0,0,0-9.23-22.8,24.87,24.87,0,0,0-9.52-6.13,29.11,29.11,0,0,0-11.79-1.51,48.1,48.1,0,0,0-25.58,10.35,28.81,28.81,0,0,0-7.39,9.27,25.14,25.14,0,0,0-2.55,11,31.9,31.9,0,0,0,2.53,12.26,31.45,31.45,0,0,0,6.69,10.54,25.07,25.07,0,0,0,9.48,6.11,28.74,28.74,0,0,0,11.76,1.52A43.55,43.55,0,0,0,1021.65,390.52Z"/></svg>