<svg id="Layer_1" data-name="Layer 1" xmlns="http://www.w3.org/2000/svg" viewBox="0 0 1094.78 1137.06"><defs><style>.cls-1{fill:none;}.cls-2{fill:#fc3030;}</style></defs><line class="cls-1" x1="99.17" y1="1055.9" x2="95.45" y2="1070.01"/><line class="cls-1" x1="17.84" y1="867.9" x2="13.71" y2="883.55"/><rect class="cls-2" x="515.93" y="709.02" width="62.92" height="319.95" rx="15.16"/><path class="cls-2" d="M694.41,855.6v230.95a50.51,50.51,0,0,1-50.51,50.51h-193a50.52,50.52,0,0,1-50.51-50.51V855.6A12.59,12.59,0,0,1,413,843h37.75a12.58,12.58,0,0,1,12.58,12.58v168a50.5,50.5,0,0,0,50.51,50.51H581a50.5,50.5,0,0,0,50.51-50.51v-168A12.58,12.58,0,0,1,644.07,843h37.76A12.58,12.58,0,0,1,694.41,855.6Z"/><rect class="cls-2" x="127.2" y="687.3" width="319.95" height="62.92" rx="15.16" transform="translate(-320.91 239.88) rotate(-30)"/><path class="cls-2" d="M372.29,839.39l-200,115.47a50.5,50.5,0,0,1-69-18.49L6.77,769.21a50.5,50.5,0,0,1,18.49-69l200-115.48a12.58,12.58,0,0,1,17.18,4.61l18.88,32.7a12.57,12.57,0,0,1-4.6,17.18l-145.52,84a50.51,50.51,0,0,0-18.49,69l33.6,58.19a50.5,50.5,0,0,0,69,18.48l145.52-84A12.57,12.57,0,0,1,358,789.5l18.88,32.7A12.59,12.59,0,0,1,372.29,839.39Z"/><rect class="cls-2" x="255.71" y="258.32" width="62.92" height="319.95" rx="15.16" transform="translate(-218.66 457.85) rotate(-60)"/><path class="cls-2" d="M225.27,552.31l-200-115.47a50.51,50.51,0,0,1-18.49-69l96.52-167.17a50.5,50.5,0,0,1,69-18.48l200,115.47a12.58,12.58,0,0,1,4.6,17.19L358,347.55a12.58,12.58,0,0,1-17.18,4.61l-145.52-84a50.5,50.5,0,0,0-69,18.49l-33.6,58.19a50.51,50.51,0,0,0,18.49,69l145.52,84a12.59,12.59,0,0,1,4.6,17.19l-18.88,32.7A12.57,12.57,0,0,1,225.27,552.31Z"/><rect class="cls-2" x="515.93" y="108.08" width="62.92" height="319.95" rx="15.16"/><path class="cls-2" d="M400.37,281.45V50.51A50.51,50.51,0,0,1,450.88,0h193a50.5,50.5,0,0,1,50.51,50.51V281.45A12.58,12.58,0,0,1,681.83,294H644.07a12.58,12.58,0,0,1-12.58-12.58v-168A50.5,50.5,0,0,0,581,62.92H513.8a50.5,50.5,0,0,0-50.51,50.5v168A12.58,12.58,0,0,1,450.71,294H413A12.59,12.59,0,0,1,400.37,281.45Z"/><rect class="cls-2" x="647.63" y="386.83" width="319.95" height="62.92" rx="15.16" transform="translate(-100.95 459.84) rotate(-30)"/><path class="cls-2" d="M722.5,297.67l200-115.47a50.5,50.5,0,0,1,69,18.48L1088,367.85a50.51,50.51,0,0,1-18.49,69l-200,115.47a12.57,12.57,0,0,1-17.18-4.6L833.45,515a12.59,12.59,0,0,1,4.6-17.19l145.52-84a50.5,50.5,0,0,0,18.49-69l-33.6-58.19a50.5,50.5,0,0,0-69-18.49L754,352.16a12.59,12.59,0,0,1-17.19-4.61l-18.88-32.69A12.59,12.59,0,0,1,722.5,297.67Z"/><rect class="cls-2" x="776.15" y="558.79" width="62.92" height="319.95" rx="15.16" transform="translate(-218.66 1058.79) rotate(-60)"/><path class="cls-2" d="M869.51,584.74l200,115.48a50.5,50.5,0,0,1,18.49,69L991.49,936.37a50.5,50.5,0,0,1-69,18.49l-200-115.47a12.59,12.59,0,0,1-4.61-17.19l18.88-32.7A12.58,12.58,0,0,1,754,784.9l145.51,84a50.52,50.52,0,0,0,69-18.48l33.59-58.19a50.5,50.5,0,0,0-18.49-69l-145.52-84a12.58,12.58,0,0,1-4.6-17.18l18.88-32.7A12.58,12.58,0,0,1,869.51,584.74Z"/></svg>