<svg width="96" height="95" viewBox="0 0 96 95" fill="none" xmlns="http://www.w3.org/2000/svg">
<path d="M85.6459 3.41796L84.7756 1.3431V1.3431L85.6459 3.41796ZM6.0902 36.7882L5.21989 34.7133H5.21989L6.0902 36.7882ZM7.7724 46.6647L8.01108 44.4274H8.01108L7.7724 46.6647ZM32.0146 49.251L31.7759 51.4883H31.7759L32.0146 49.251ZM46.2293 63.3078L48.466 63.0638L46.2293 63.3078ZM48.8446 87.2806L46.6079 87.5247L48.8446 87.2806ZM58.8322 88.9441L56.7644 88.0572L58.8322 88.9441ZM92.5773 10.2724L94.6451 11.1594L92.5773 10.2724ZM84.7756 1.3431L5.21989 34.7133L6.96052 38.8631L86.5162 5.49282L84.7756 1.3431ZM7.53371 48.9021L31.7759 51.4883L32.2532 47.0137L8.01108 44.4274L7.53371 48.9021ZM43.9926 63.5518L46.6079 87.5247L51.0814 87.0366L48.466 63.0638L43.9926 63.5518ZM60.9 89.8311L94.6451 11.1594L90.5095 9.38545L56.7644 88.0572L60.9 89.8311ZM46.6079 87.5247C47.0219 91.3194 49.8917 93.6417 52.9039 94.1434C55.9231 94.6463 59.3858 93.3612 60.9 89.8311L56.7644 88.0572C56.1938 89.3874 54.952 89.9226 53.6433 89.7046C52.3276 89.4855 51.246 88.5459 51.0814 87.0366L46.6079 87.5247ZM31.7759 51.4883C38.1937 52.173 43.3051 57.2502 43.9926 63.5518L48.466 63.0638C47.5455 54.6256 40.7408 47.9192 32.2532 47.0137L31.7759 51.4883ZM5.21989 34.7133C1.67142 36.2018 0.342666 39.6326 0.858782 42.6628C1.37286 45.6811 3.73914 48.4972 7.53371 48.9021L8.01108 44.4274C6.44208 44.2601 5.50976 43.1688 5.2949 41.9072C5.08206 40.6576 5.594 39.4362 6.96052 38.8631L5.21989 34.7133ZM86.5162 5.49282C89.0362 4.43576 91.5119 7.0485 90.5095 9.38545L94.6451 11.1594C97.303 4.96305 90.8846 -1.2194 84.7756 1.3431L86.5162 5.49282Z" fill="white" fill-opacity="0.8"/>
</svg>
